M48
; DRILL file KiCad 10.0.4 date 2026-07-10T07:22:51
; FORMAT={-:-/ absolute / metric / decimal}
; #@! TF.CreationDate,2026-07-10T07:22:51-05:00
; #@! TF.GenerationSoftware,Kicad,Pcbnew,10.0.4
; #@! TF.FileFunction,Plated,1,2,PTH
FMAT,2
METRIC
; #@! TA.AperFunction,Plated,PTH,ComponentDrill
T1C0.800
; #@! TA.AperFunction,Plated,PTH,ComponentDrill
T2C0.900
; #@! TA.AperFunction,Plated,PTH,ComponentDrill
T3C1.000
; #@! TA.AperFunction,Plated,PTH,ComponentDrill
T4C2.800
%
G90
G05
T1
X120.0Y-94.69
X120.0Y-102.31
T2
X106.46Y-102.0
X109.0Y-102.0
T3
X98.0Y-72.19
X98.0Y-74.73
X98.0Y-77.27
X98.0Y-79.81
X110.0Y-63.84
X110.0Y-66.38
X110.0Y-68.92
X110.0Y-71.46
X110.0Y-74.0
X110.0Y-76.54
X110.0Y-79.08
X127.78Y-63.88
X127.78Y-66.42
X127.78Y-68.96
X127.78Y-71.5
X127.78Y-74.04
X127.78Y-76.58
X127.78Y-79.12
X141.0Y-70.96
X141.0Y-73.5
X141.0Y-76.04
X141.0Y-78.58
X141.0Y-81.12
X141.0Y-83.66
X141.0Y-86.2
X141.0Y-88.74
T4
X98.0Y-93.0
X134.5Y-96.0
M30
