%TF.GenerationSoftware,KiCad,Pcbnew,10.0.4*%
%TF.CreationDate,2026-07-06T14:33:56-05:00*%
%TF.ProjectId,battery-powered-smart-vision-module,62617474-6572-4792-9d70-6f7765726564,rev?*%
%TF.SameCoordinates,Original*%
%TF.FileFunction,Legend,Top*%
%TF.FilePolarity,Positive*%
%FSLAX46Y46*%
G04 Gerber Fmt 4.6, Leading zero omitted, Abs format (unit mm)*
G04 Created by KiCad (PCBNEW 10.0.4) date 2026-07-06 14:33:56*
%MOMM*%
%LPD*%
G01*
G04 APERTURE LIST*
%ADD10C,0.150000*%
%ADD11C,0.120000*%
G04 APERTURE END LIST*
D10*
X123238095Y-81954819D02*
X123809523Y-81954819D01*
X123523809Y-82954819D02*
X123523809Y-81954819D01*
X124142857Y-82954819D02*
X124142857Y-81954819D01*
X124142857Y-81954819D02*
X124523809Y-81954819D01*
X124523809Y-81954819D02*
X124619047Y-82002438D01*
X124619047Y-82002438D02*
X124666666Y-82050057D01*
X124666666Y-82050057D02*
X124714285Y-82145295D01*
X124714285Y-82145295D02*
X124714285Y-82288152D01*
X124714285Y-82288152D02*
X124666666Y-82383390D01*
X124666666Y-82383390D02*
X124619047Y-82431009D01*
X124619047Y-82431009D02*
X124523809Y-82478628D01*
X124523809Y-82478628D02*
X124142857Y-82478628D01*
X125047619Y-81954819D02*
X125666666Y-81954819D01*
X125666666Y-81954819D02*
X125333333Y-82335771D01*
X125333333Y-82335771D02*
X125476190Y-82335771D01*
X125476190Y-82335771D02*
X125571428Y-82383390D01*
X125571428Y-82383390D02*
X125619047Y-82431009D01*
X125619047Y-82431009D02*
X125666666Y-82526247D01*
X125666666Y-82526247D02*
X125666666Y-82764342D01*
X125666666Y-82764342D02*
X125619047Y-82859580D01*
X125619047Y-82859580D02*
X125571428Y-82907200D01*
X125571428Y-82907200D02*
X125476190Y-82954819D01*
X125476190Y-82954819D02*
X125190476Y-82954819D01*
X125190476Y-82954819D02*
X125095238Y-82907200D01*
X125095238Y-82907200D02*
X125047619Y-82859580D01*
X124738095Y-74954819D02*
X125309523Y-74954819D01*
X125023809Y-75954819D02*
X125023809Y-74954819D01*
X125642857Y-75954819D02*
X125642857Y-74954819D01*
X125642857Y-74954819D02*
X126023809Y-74954819D01*
X126023809Y-74954819D02*
X126119047Y-75002438D01*
X126119047Y-75002438D02*
X126166666Y-75050057D01*
X126166666Y-75050057D02*
X126214285Y-75145295D01*
X126214285Y-75145295D02*
X126214285Y-75288152D01*
X126214285Y-75288152D02*
X126166666Y-75383390D01*
X126166666Y-75383390D02*
X126119047Y-75431009D01*
X126119047Y-75431009D02*
X126023809Y-75478628D01*
X126023809Y-75478628D02*
X125642857Y-75478628D01*
X126595238Y-75050057D02*
X126642857Y-75002438D01*
X126642857Y-75002438D02*
X126738095Y-74954819D01*
X126738095Y-74954819D02*
X126976190Y-74954819D01*
X126976190Y-74954819D02*
X127071428Y-75002438D01*
X127071428Y-75002438D02*
X127119047Y-75050057D01*
X127119047Y-75050057D02*
X127166666Y-75145295D01*
X127166666Y-75145295D02*
X127166666Y-75240533D01*
X127166666Y-75240533D02*
X127119047Y-75383390D01*
X127119047Y-75383390D02*
X126547619Y-75954819D01*
X126547619Y-75954819D02*
X127166666Y-75954819D01*
X124738095Y-68104819D02*
X125309523Y-68104819D01*
X125023809Y-69104819D02*
X125023809Y-68104819D01*
X125642857Y-69104819D02*
X125642857Y-68104819D01*
X125642857Y-68104819D02*
X126023809Y-68104819D01*
X126023809Y-68104819D02*
X126119047Y-68152438D01*
X126119047Y-68152438D02*
X126166666Y-68200057D01*
X126166666Y-68200057D02*
X126214285Y-68295295D01*
X126214285Y-68295295D02*
X126214285Y-68438152D01*
X126214285Y-68438152D02*
X126166666Y-68533390D01*
X126166666Y-68533390D02*
X126119047Y-68581009D01*
X126119047Y-68581009D02*
X126023809Y-68628628D01*
X126023809Y-68628628D02*
X125642857Y-68628628D01*
X127166666Y-69104819D02*
X126595238Y-69104819D01*
X126880952Y-69104819D02*
X126880952Y-68104819D01*
X126880952Y-68104819D02*
X126785714Y-68247676D01*
X126785714Y-68247676D02*
X126690476Y-68342914D01*
X126690476Y-68342914D02*
X126595238Y-68390533D01*
X108166667Y-59407200D02*
X108309524Y-59454819D01*
X108309524Y-59454819D02*
X108547619Y-59454819D01*
X108547619Y-59454819D02*
X108642857Y-59407200D01*
X108642857Y-59407200D02*
X108690476Y-59359580D01*
X108690476Y-59359580D02*
X108738095Y-59264342D01*
X108738095Y-59264342D02*
X108738095Y-59169104D01*
X108738095Y-59169104D02*
X108690476Y-59073866D01*
X108690476Y-59073866D02*
X108642857Y-59026247D01*
X108642857Y-59026247D02*
X108547619Y-58978628D01*
X108547619Y-58978628D02*
X108357143Y-58931009D01*
X108357143Y-58931009D02*
X108261905Y-58883390D01*
X108261905Y-58883390D02*
X108214286Y-58835771D01*
X108214286Y-58835771D02*
X108166667Y-58740533D01*
X108166667Y-58740533D02*
X108166667Y-58645295D01*
X108166667Y-58645295D02*
X108214286Y-58550057D01*
X108214286Y-58550057D02*
X108261905Y-58502438D01*
X108261905Y-58502438D02*
X108357143Y-58454819D01*
X108357143Y-58454819D02*
X108595238Y-58454819D01*
X108595238Y-58454819D02*
X108738095Y-58502438D01*
X109071429Y-58454819D02*
X109309524Y-59454819D01*
X109309524Y-59454819D02*
X109500000Y-58740533D01*
X109500000Y-58740533D02*
X109690476Y-59454819D01*
X109690476Y-59454819D02*
X109928572Y-58454819D01*
X110261905Y-58550057D02*
X110309524Y-58502438D01*
X110309524Y-58502438D02*
X110404762Y-58454819D01*
X110404762Y-58454819D02*
X110642857Y-58454819D01*
X110642857Y-58454819D02*
X110738095Y-58502438D01*
X110738095Y-58502438D02*
X110785714Y-58550057D01*
X110785714Y-58550057D02*
X110833333Y-58645295D01*
X110833333Y-58645295D02*
X110833333Y-58740533D01*
X110833333Y-58740533D02*
X110785714Y-58883390D01*
X110785714Y-58883390D02*
X110214286Y-59454819D01*
X110214286Y-59454819D02*
X110833333Y-59454819D01*
X106508333Y-93954819D02*
X106175000Y-93478628D01*
X105936905Y-93954819D02*
X105936905Y-92954819D01*
X105936905Y-92954819D02*
X106317857Y-92954819D01*
X106317857Y-92954819D02*
X106413095Y-93002438D01*
X106413095Y-93002438D02*
X106460714Y-93050057D01*
X106460714Y-93050057D02*
X106508333Y-93145295D01*
X106508333Y-93145295D02*
X106508333Y-93288152D01*
X106508333Y-93288152D02*
X106460714Y-93383390D01*
X106460714Y-93383390D02*
X106413095Y-93431009D01*
X106413095Y-93431009D02*
X106317857Y-93478628D01*
X106317857Y-93478628D02*
X105936905Y-93478628D01*
X107365476Y-93288152D02*
X107365476Y-93954819D01*
X107127381Y-92907200D02*
X106889286Y-93621485D01*
X106889286Y-93621485D02*
X107508333Y-93621485D01*
X78454819Y-84333333D02*
X79169104Y-84333333D01*
X79169104Y-84333333D02*
X79311961Y-84380952D01*
X79311961Y-84380952D02*
X79407200Y-84476190D01*
X79407200Y-84476190D02*
X79454819Y-84619047D01*
X79454819Y-84619047D02*
X79454819Y-84714285D01*
X78788152Y-83428571D02*
X79454819Y-83428571D01*
X78407200Y-83666666D02*
X79121485Y-83904761D01*
X79121485Y-83904761D02*
X79121485Y-83285714D01*
X108166666Y-80414819D02*
X108166666Y-81129104D01*
X108166666Y-81129104D02*
X108119047Y-81271961D01*
X108119047Y-81271961D02*
X108023809Y-81367200D01*
X108023809Y-81367200D02*
X107880952Y-81414819D01*
X107880952Y-81414819D02*
X107785714Y-81414819D01*
X108547619Y-80414819D02*
X109166666Y-80414819D01*
X109166666Y-80414819D02*
X108833333Y-80795771D01*
X108833333Y-80795771D02*
X108976190Y-80795771D01*
X108976190Y-80795771D02*
X109071428Y-80843390D01*
X109071428Y-80843390D02*
X109119047Y-80891009D01*
X109119047Y-80891009D02*
X109166666Y-80986247D01*
X109166666Y-80986247D02*
X109166666Y-81224342D01*
X109166666Y-81224342D02*
X109119047Y-81319580D01*
X109119047Y-81319580D02*
X109071428Y-81367200D01*
X109071428Y-81367200D02*
X108976190Y-81414819D01*
X108976190Y-81414819D02*
X108690476Y-81414819D01*
X108690476Y-81414819D02*
X108595238Y-81367200D01*
X108595238Y-81367200D02*
X108547619Y-81319580D01*
X62666666Y-71874819D02*
X62666666Y-72589104D01*
X62666666Y-72589104D02*
X62619047Y-72731961D01*
X62619047Y-72731961D02*
X62523809Y-72827200D01*
X62523809Y-72827200D02*
X62380952Y-72874819D01*
X62380952Y-72874819D02*
X62285714Y-72874819D01*
X63666666Y-72874819D02*
X63095238Y-72874819D01*
X63380952Y-72874819D02*
X63380952Y-71874819D01*
X63380952Y-71874819D02*
X63285714Y-72017676D01*
X63285714Y-72017676D02*
X63190476Y-72112914D01*
X63190476Y-72112914D02*
X63095238Y-72160533D01*
X121738095Y-84304819D02*
X121738095Y-83304819D01*
X121738095Y-83781009D02*
X122309523Y-83781009D01*
X122309523Y-84304819D02*
X122309523Y-83304819D01*
X123214285Y-83638152D02*
X123214285Y-84304819D01*
X122976190Y-83257200D02*
X122738095Y-83971485D01*
X122738095Y-83971485D02*
X123357142Y-83971485D01*
X60738095Y-85304819D02*
X60738095Y-84304819D01*
X60738095Y-84781009D02*
X61309523Y-84781009D01*
X61309523Y-85304819D02*
X61309523Y-84304819D01*
X61690476Y-84304819D02*
X62309523Y-84304819D01*
X62309523Y-84304819D02*
X61976190Y-84685771D01*
X61976190Y-84685771D02*
X62119047Y-84685771D01*
X62119047Y-84685771D02*
X62214285Y-84733390D01*
X62214285Y-84733390D02*
X62261904Y-84781009D01*
X62261904Y-84781009D02*
X62309523Y-84876247D01*
X62309523Y-84876247D02*
X62309523Y-85114342D01*
X62309523Y-85114342D02*
X62261904Y-85209580D01*
X62261904Y-85209580D02*
X62214285Y-85257200D01*
X62214285Y-85257200D02*
X62119047Y-85304819D01*
X62119047Y-85304819D02*
X61833333Y-85304819D01*
X61833333Y-85304819D02*
X61738095Y-85257200D01*
X61738095Y-85257200D02*
X61690476Y-85209580D01*
X121238095Y-58954819D02*
X121238095Y-57954819D01*
X121238095Y-58431009D02*
X121809523Y-58431009D01*
X121809523Y-58954819D02*
X121809523Y-57954819D01*
X122238095Y-58050057D02*
X122285714Y-58002438D01*
X122285714Y-58002438D02*
X122380952Y-57954819D01*
X122380952Y-57954819D02*
X122619047Y-57954819D01*
X122619047Y-57954819D02*
X122714285Y-58002438D01*
X122714285Y-58002438D02*
X122761904Y-58050057D01*
X122761904Y-58050057D02*
X122809523Y-58145295D01*
X122809523Y-58145295D02*
X122809523Y-58240533D01*
X122809523Y-58240533D02*
X122761904Y-58383390D01*
X122761904Y-58383390D02*
X122190476Y-58954819D01*
X122190476Y-58954819D02*
X122809523Y-58954819D01*
X61238095Y-53304819D02*
X61238095Y-52304819D01*
X61238095Y-52781009D02*
X61809523Y-52781009D01*
X61809523Y-53304819D02*
X61809523Y-52304819D01*
X62809523Y-53304819D02*
X62238095Y-53304819D01*
X62523809Y-53304819D02*
X62523809Y-52304819D01*
X62523809Y-52304819D02*
X62428571Y-52447676D01*
X62428571Y-52447676D02*
X62333333Y-52542914D01*
X62333333Y-52542914D02*
X62238095Y-52590533D01*
X97786905Y-88954819D02*
X97786905Y-87954819D01*
X97786905Y-87954819D02*
X98025000Y-87954819D01*
X98025000Y-87954819D02*
X98167857Y-88002438D01*
X98167857Y-88002438D02*
X98263095Y-88097676D01*
X98263095Y-88097676D02*
X98310714Y-88192914D01*
X98310714Y-88192914D02*
X98358333Y-88383390D01*
X98358333Y-88383390D02*
X98358333Y-88526247D01*
X98358333Y-88526247D02*
X98310714Y-88716723D01*
X98310714Y-88716723D02*
X98263095Y-88811961D01*
X98263095Y-88811961D02*
X98167857Y-88907200D01*
X98167857Y-88907200D02*
X98025000Y-88954819D01*
X98025000Y-88954819D02*
X97786905Y-88954819D01*
X98739286Y-88050057D02*
X98786905Y-88002438D01*
X98786905Y-88002438D02*
X98882143Y-87954819D01*
X98882143Y-87954819D02*
X99120238Y-87954819D01*
X99120238Y-87954819D02*
X99215476Y-88002438D01*
X99215476Y-88002438D02*
X99263095Y-88050057D01*
X99263095Y-88050057D02*
X99310714Y-88145295D01*
X99310714Y-88145295D02*
X99310714Y-88240533D01*
X99310714Y-88240533D02*
X99263095Y-88383390D01*
X99263095Y-88383390D02*
X98691667Y-88954819D01*
X98691667Y-88954819D02*
X99310714Y-88954819D01*
X73214285Y-59881009D02*
X73357142Y-59928628D01*
X73357142Y-59928628D02*
X73404761Y-59976247D01*
X73404761Y-59976247D02*
X73452380Y-60071485D01*
X73452380Y-60071485D02*
X73452380Y-60214342D01*
X73452380Y-60214342D02*
X73404761Y-60309580D01*
X73404761Y-60309580D02*
X73357142Y-60357200D01*
X73357142Y-60357200D02*
X73261904Y-60404819D01*
X73261904Y-60404819D02*
X72880952Y-60404819D01*
X72880952Y-60404819D02*
X72880952Y-59404819D01*
X72880952Y-59404819D02*
X73214285Y-59404819D01*
X73214285Y-59404819D02*
X73309523Y-59452438D01*
X73309523Y-59452438D02*
X73357142Y-59500057D01*
X73357142Y-59500057D02*
X73404761Y-59595295D01*
X73404761Y-59595295D02*
X73404761Y-59690533D01*
X73404761Y-59690533D02*
X73357142Y-59785771D01*
X73357142Y-59785771D02*
X73309523Y-59833390D01*
X73309523Y-59833390D02*
X73214285Y-59881009D01*
X73214285Y-59881009D02*
X72880952Y-59881009D01*
X73738095Y-59404819D02*
X74309523Y-59404819D01*
X74023809Y-60404819D02*
X74023809Y-59404819D01*
X75166666Y-60404819D02*
X74595238Y-60404819D01*
X74880952Y-60404819D02*
X74880952Y-59404819D01*
X74880952Y-59404819D02*
X74785714Y-59547676D01*
X74785714Y-59547676D02*
X74690476Y-59642914D01*
X74690476Y-59642914D02*
X74595238Y-59690533D01*
X88738095Y-55569819D02*
X88738095Y-56379342D01*
X88738095Y-56379342D02*
X88785714Y-56474580D01*
X88785714Y-56474580D02*
X88833333Y-56522200D01*
X88833333Y-56522200D02*
X88928571Y-56569819D01*
X88928571Y-56569819D02*
X89119047Y-56569819D01*
X89119047Y-56569819D02*
X89214285Y-56522200D01*
X89214285Y-56522200D02*
X89261904Y-56474580D01*
X89261904Y-56474580D02*
X89309523Y-56379342D01*
X89309523Y-56379342D02*
X89309523Y-55569819D01*
X90309523Y-56569819D02*
X89738095Y-56569819D01*
X90023809Y-56569819D02*
X90023809Y-55569819D01*
X90023809Y-55569819D02*
X89928571Y-55712676D01*
X89928571Y-55712676D02*
X89833333Y-55807914D01*
X89833333Y-55807914D02*
X89738095Y-55855533D01*
%TO.C,TP3*%
D11*
X125200000Y-78850000D02*
G75*
G02*
X119800000Y-78850000I-2700000J0D01*
G01*
X119800000Y-78850000D02*
G75*
G02*
X125200000Y-78850000I2700000J0D01*
G01*
%TO.C,TP2*%
X125200000Y-72000000D02*
G75*
G02*
X119800000Y-72000000I-2700000J0D01*
G01*
X119800000Y-72000000D02*
G75*
G02*
X125200000Y-72000000I2700000J0D01*
G01*
%TO.C,TP1*%
X125200000Y-65150000D02*
G75*
G02*
X119800000Y-65150000I-2700000J0D01*
G01*
X119800000Y-65150000D02*
G75*
G02*
X125200000Y-65150000I2700000J0D01*
G01*
%TO.C,SW2*%
X104310000Y-52840000D02*
X104310000Y-54223000D01*
X104310000Y-52840000D02*
X105693000Y-52840000D01*
X104550000Y-53080000D02*
X104550000Y-57920000D01*
X104550000Y-53080000D02*
X114450000Y-53080000D01*
X104550000Y-57920000D02*
X114450000Y-57920000D01*
X108823333Y-54865000D02*
X108823333Y-56135000D01*
X114450000Y-53080000D02*
X114450000Y-57920000D01*
X107470000Y-54865000D02*
X108823333Y-54865000D01*
X108823333Y-56135000D01*
X107470000Y-56135000D01*
X107470000Y-54865000D01*
G36*
X107470000Y-54865000D02*
G01*
X108823333Y-54865000D01*
X108823333Y-56135000D01*
X107470000Y-56135000D01*
X107470000Y-54865000D01*
G37*
X107470000Y-54865000D02*
X111530000Y-54865000D01*
X111530000Y-56135000D01*
X107470000Y-56135000D01*
X107470000Y-54865000D01*
%TO.C,R4*%
X104814564Y-87735000D02*
X104360436Y-87735000D01*
X104814564Y-86265000D02*
X104360436Y-86265000D01*
%TO.C,J4*%
X80000000Y-85380000D02*
X80000000Y-84000000D01*
X81380000Y-85380000D02*
X80000000Y-85380000D01*
X82650000Y-85380000D02*
X100540000Y-85380000D01*
X82650000Y-85380000D02*
X82650000Y-82620000D01*
X100540000Y-85380000D02*
X100540000Y-82620000D01*
X82650000Y-82620000D02*
X100540000Y-82620000D01*
%TO.C,J3*%
X109880000Y-79960000D02*
X108500000Y-79960000D01*
X109880000Y-78580000D02*
X109880000Y-79960000D01*
X109880000Y-77310000D02*
X109880000Y-69580000D01*
X109880000Y-77310000D02*
X107120000Y-77310000D01*
X109880000Y-69580000D02*
X107120000Y-69580000D01*
X107120000Y-77310000D02*
X107120000Y-69580000D01*
%TO.C,J1*%
X64380000Y-71420000D02*
X63000000Y-71420000D01*
X64380000Y-70040000D02*
X64380000Y-71420000D01*
X64380000Y-68770000D02*
X64380000Y-66120000D01*
X64380000Y-68770000D02*
X61620000Y-68770000D01*
X64380000Y-66120000D02*
X61620000Y-66120000D01*
X61620000Y-68770000D02*
X61620000Y-66120000D01*
%TO.C,D2*%
X111752500Y-85540000D02*
X111752500Y-87460000D01*
X111752500Y-87460000D02*
X114437500Y-87460000D01*
X114437500Y-85540000D02*
X111752500Y-85540000D01*
%TO.C,BT1*%
X77360000Y-59160000D02*
X77360000Y-57910000D01*
X77060000Y-57550000D02*
X76450000Y-57550000D01*
X77060000Y-56250000D02*
X76450000Y-56250000D01*
X76450000Y-58250000D02*
X76450000Y-54750000D01*
X76450000Y-54750000D02*
X71550000Y-54750000D01*
X76110000Y-59160000D02*
X77360000Y-59160000D01*
X75600000Y-59060000D02*
X75600000Y-58860000D01*
X75300000Y-59060000D02*
X75600000Y-59060000D01*
X75300000Y-58960000D02*
X75600000Y-58960000D01*
X75300000Y-58860000D02*
X75300000Y-59060000D01*
X74500000Y-58860000D02*
X74500000Y-58250000D01*
X74500000Y-58250000D02*
X76450000Y-58250000D01*
X74100000Y-55250000D02*
X73900000Y-55250000D01*
X74100000Y-54750000D02*
X74100000Y-55250000D01*
X74000000Y-54750000D02*
X74000000Y-55250000D01*
X73900000Y-55250000D02*
X73900000Y-54750000D01*
X73500000Y-58250000D02*
X73500000Y-58860000D01*
X71550000Y-58250000D02*
X73500000Y-58250000D01*
X71550000Y-54750000D02*
X71550000Y-58250000D01*
X70940000Y-57550000D02*
X71550000Y-57550000D01*
X70940000Y-56250000D02*
X71550000Y-56250000D01*
X70940000Y-54140000D02*
X77060000Y-54140000D01*
X77060000Y-58860000D01*
X70940000Y-58860000D01*
X70940000Y-54140000D01*
%TD*%
M02*
